<svg id="visual" viewBox="0 0 900 600" width="900" height="600" xmlns="http://www.w3.org/2000/svg" xmlns:xlink="http://www.w3.org/1999/xlink" version="1.1"><rect x="0" y="0" width="900" height="600" fill="#FFFFFF"></rect><g transform="translate(433.4037566399636 266.3211428222095)"><path d="M136.2 -143.6C185.5 -121 240.5 -86.6 250.2 -42.5C259.9 1.6 224.3 55.3 189.4 103.1C154.4 151 119.9 192.9 72.7 218C25.5 243.1 -34.4 251.2 -84.5 232.7C-134.5 214.2 -174.6 169.1 -197.3 119.1C-220 69.1 -225.2 14.2 -209.9 -30.8C-194.6 -75.9 -158.7 -111.1 -120.3 -135.6C-81.8 -160 -40.9 -173.8 1.3 -175.3C43.5 -176.8 87 -166.2 136.2 -143.6" fill="#5e7ca9"></path></g></svg>